<?xml version="1.0" encoding="utf-8"?>
<!-- Generator: Adobe Illustrator 18.1.1, SVG Export Plug-In . SVG Version: 6.00 Build 0)  -->
<svg version="1.1" id="Layer_1" xmlns="http://www.w3.org/2000/svg" xmlns:xlink="http://www.w3.org/1999/xlink" x="0px" y="0px"
	 viewBox="0 0 288 288" enable-background="new 0 0 288 288" xml:space="preserve">
<g>
	<path fill="#2D4040" d="M128.2,112c-1.1-0.1-11.1-0.9-12.3-0.9c-14.5,0-29.7,5.4-42.8,15.1c-27.3,20.2-37.4,53.3-22.4,73.6
		c7.2,9.8,19.3,15.3,33.9,15.3c14.5,0,29.7-5.4,42.8-15.1c13.5-10,23.1-23.3,27.3-37.5l9.9,5.5c2.3,1-0.8,2.4-1.8,4.8
		c-5.6,13.8-15.7,26.4-28.8,36.1c-15,11.1-32.6,17.3-49.4,17.3c0,0,0,0,0,0c-18.2,0-33.4-7-42.8-19.8c-18.6-25.3-7.5-65.2,24.7-89.1
		c15-11.1,44.9-16.2,61.7-16.2"/>
	<path fill="#2D4040" d="M130.2,116c-4.8,2.5-9.1,6.3-12.2,11.3c-3.5,5.5-5.2,12-5.2,18.5c0,3.6,0.9,7.9-0.5,11.3
		c-1.4,3.4-4.8,5.7-8,7.4c-11.5,6.3-26,5.5-38.6,7.6c-6.3,1-12.3,2.7-16.3,8c-3.6,4.8-3.5,11.9-7.5,16.1c-6.1,6.5,3.6,16.3,9.8,9.8
		c4-4.2,5.2-9,7.2-14.3c2.2-5.9,8-5.9,13.7-6.7c11.9-1.6,24.2-2,35.4-6.9c11.5-5.1,19.1-14,18.9-26.9c-0.1-6.6-0.3-12.5,3.8-18
		C132.9,130.3,137.1,112.4,130.2,116z"/>
	<path fill="#2D4040" d="M206.5,193.1C206.5,193.1,206.5,193.1,206.5,193.1c-20.8,0-42.7-11-58.6-29.5c-16-18.7-23-41.4-20.5-61
		c1.6-12.4,6.9-23.5,16.2-31.4c8.6-7.4,19.7-11.4,32.1-11.4c20.8,0,42.7,11,58.6,29.5c12.5,14.6,20,32,21,49.2
		c1,17.7-4.9,33.1-16.6,43.2C229.9,189.2,218.8,193.1,206.5,193.1z M175.7,70.9c-9.7,0-18.3,3-24.9,8.7
		c-19.2,16.5-16.7,50.9,5.5,76.8c13.8,16.1,32.6,25.7,50.2,25.7c9.7,0,18.3-3,24.9-8.7c9.1-7.8,13.6-19.9,12.8-34.1
		c-0.9-14.8-7.4-29.9-18.3-42.6C212,80.5,193.3,70.9,175.7,70.9z"/>
	<path fill="#2D4040" d="M237.2,177.8c2-13-2.8-26.1-14.6-33c-5.4-3.1-11.6-4.6-17.8-4.1c-3.3,0.2-7.7,1.6-10.9,0.2
		c-2.9-1.3-5.2-4.8-6.7-7.5c-5.9-10.4-6.3-23.4-9-34.8c-1.3-5.7-3-11.4-7.8-15.1c-4.5-3.5-11.5-2.8-15.6-6.3
		c-6.8-5.7-16.6,4-9.8,9.8c3.9,3.3,8,4.6,12.8,6c6.2,1.7,6.5,6.6,7.7,12.3c2.2,10.7,3.4,21.7,8,31.8c4.3,9.4,12.3,18.2,23.3,18.3
		c6.7,0.1,12.6-2.1,18.8,1.5c6,3.5,9.2,10.5,8.2,17.3C222.5,182.9,235.9,186.6,237.2,177.8L237.2,177.8z"/>
</g>
</svg>
